<?xml version="1.0" standalone="no"?><!DOCTYPE svg PUBLIC "-//W3C//DTD SVG 1.1//EN" "http://www.w3.org/Graphics/SVG/1.1/DTD/svg11.dtd"><svg t="1594721487530" class="icon" viewBox="0 0 1024 1024" version="1.1" xmlns="http://www.w3.org/2000/svg" p-id="9522" xmlns:xlink="http://www.w3.org/1999/xlink" width="16" height="16"><defs><style type="text/css"></style></defs><path d="M705.408 753.664H318.592a24.128 24.128 0 0 1-24.192-24v-67.136c0-13.248 10.88-24.064 24.192-24.064h386.816c13.312 0 24.192 10.816 24.192 24.064v67.136c0 13.248-10.88 24-24.192 24zM704 662.528l-385.408 1.536L320 729.664l384-1.6v-65.536zM705.408 885.888H318.592a24.128 24.128 0 0 1-24.192-24v-67.136c0-13.248 10.88-24.064 24.192-24.064h386.816c13.312 0 24.192 10.816 24.192 24.064v67.136c0 13.248-10.88 24-24.192 24zM704 794.752l-385.408 1.536L320 861.888l384-1.6v-65.536zM705.408 621.376H318.592a24.128 24.128 0 0 1-24.192-24v-67.2c0-13.248 10.88-24 24.192-24h386.816c13.312 0 24.192 10.752 24.192 24v67.2c0 13.248-10.88 24-24.192 24zM704 530.176l-385.408 1.6L320 597.376l384-1.6V530.176z" p-id="9523"></path><path d="M690.496 563.776a19.2 19.2 0 1 1-38.4 0 19.2 19.2 0 0 1 38.4 0zM690.496 696.064a19.2 19.2 0 1 1-38.4 0 19.2 19.2 0 0 1 38.4 0zM690.496 828.352a19.2 19.2 0 1 1-38.4 0 19.2 19.2 0 0 1 38.4 0zM341.312 550.976h227.52v25.6H341.312v-25.6zM341.312 683.264h227.52v25.6H341.312v-25.6zM341.312 815.552h227.52v25.6H341.312v-25.6z" p-id="9524"></path><path d="M185.6 793.408a153.728 153.728 0 0 1-153.6-153.6c0-51.648 26.304-99.712 68.544-127.936a115.392 115.392 0 0 1 110.656-147.2c8.832 0 18.688 2.176 28.032 5.056A282.048 282.048 0 0 1 518.4 125.312a279.936 279.936 0 0 1 277.632 233.984A217.92 217.92 0 0 1 992 575.744c0 120-97.6 217.6-217.6 217.6a25.6 25.6 0 1 1 0-51.2c91.776 0 166.4-74.624 166.4-166.4s-74.624-166.4-166.4-166.4a26.56 26.56 0 0 1-26.496-23.296A228.992 228.992 0 0 0 518.4 176.512a230.656 230.656 0 0 0-230.4 230.4 25.664 25.664 0 0 1-37.376 22.784c-12.864-6.656-31.808-13.76-39.424-13.76a64.064 64.064 0 0 0-56.704 93.696c3.2 6.144 3.776 14.912 1.6 21.504a27.072 27.072 0 0 1-14.336 16.128 102.528 102.528 0 0 0 43.84 195.008 25.6 25.6 0 1 1 0 51.2z" p-id="9525"></path></svg>