<?xml version="1.0" standalone="no"?><!DOCTYPE svg PUBLIC "-//W3C//DTD SVG 1.1//EN" "http://www.w3.org/Graphics/SVG/1.1/DTD/svg11.dtd"><svg t="1594721540933" class="icon" viewBox="0 0 1024 1024" version="1.1" xmlns="http://www.w3.org/2000/svg" p-id="10580" xmlns:xlink="http://www.w3.org/1999/xlink" width="16" height="16"><defs><style type="text/css"></style></defs><path d="M543.27444 0.000427a479.9998 479.9998 0 0 0-420.223825 713.215702L4.266665 962.901359A42.666649 42.666649 0 0 0 61.013308 1019.733335l249.685229-118.91195A480.5118 480.5118 0 1 0 543.27444 0.000427z m0 875.988968a394.410502 394.410502 0 0 1-207.999913-59.733308 42.666649 42.666649 0 0 0-40.87465-2.176l-134.399944 63.999974a10.666662 10.666662 0 0 1-14.207994-14.207994l63.999974-134.399944a42.666649 42.666649 0 0 0-2.303999-40.87465 395.050502 395.050502 0 1 1 335.74386 187.391922z" p-id="10581"></path><path d="M341.333191 405.290924m-63.999973 0a63.999973 63.999973 0 1 0 127.999946 0 63.999973 63.999973 0 1 0-127.999946 0Z" p-id="10582"></path><path d="M746.666356 405.290924m-63.999974 0a63.999973 63.999973 0 1 0 127.999947 0 63.999973 63.999973 0 1 0-127.999947 0Z" p-id="10583"></path><path d="M650.666396 533.973538h-211.925245a21.333324 21.333324 0 0 0-21.333325 21.333324 127.31728 127.31728 0 0 0 254.591894 0 21.333324 21.333324 0 0 0-21.333324-21.333324z" p-id="10584"></path></svg>