<?xml version="1.0" standalone="no"?><!DOCTYPE svg PUBLIC "-//W3C//DTD SVG 1.1//EN" "http://www.w3.org/Graphics/SVG/1.1/DTD/svg11.dtd"><svg t="1594721525715" class="icon" viewBox="0 0 1024 1024" version="1.1" xmlns="http://www.w3.org/2000/svg" p-id="10301" xmlns:xlink="http://www.w3.org/1999/xlink" width="16" height="16"><defs><style type="text/css"></style></defs><path d="M512.25 1012c-67.384 0-132.77-13.205-194.341-39.247-59.454-25.146-112.842-61.14-158.683-106.98-45.839-45.84-81.833-99.229-106.98-158.683C26.205 645.52 13 580.134 13 512.75c0-67.384 13.205-132.77 39.247-194.34 25.147-59.454 61.141-112.843 106.98-158.683 45.84-45.84 99.229-81.833 158.683-106.98C379.48 26.705 444.866 13.5 512.25 13.5c67.384 0 132.77 13.205 194.34 39.247 59.454 25.147 112.843 61.141 158.683 106.98 45.841 45.84 81.834 99.229 106.98 158.683 26.042 61.571 39.247 126.956 39.247 194.34 0 67.384-13.205 132.77-39.247 194.34-25.146 59.454-61.14 112.843-106.98 158.683-45.84 45.841-99.229 81.834-158.683 106.98C645.02 998.795 579.634 1012 512.25 1012zM512.25 77.5C272.252 77.5 77 272.752 77 512.75 77 752.748 272.252 948 512.25 948c239.998 0 435.25-195.252 435.25-435.25C947.5 272.752 752.248 77.5 512.25 77.5z" p-id="10302"></path><path d="M512.25 518.957c-92.083 0-166.999-74.915-166.999-166.998 0-92.083 74.915-166.999 166.999-166.999 92.083 0 166.998 74.915 166.998 166.999C679.248 444.042 604.333 518.957 512.25 518.957zM512.25 238.961c-62.308 0-112.999 50.691-112.999 112.999 0 62.307 50.691 112.998 112.999 112.998s112.998-50.69 112.998-112.998C625.248 289.652 574.558 238.961 512.25 238.961z" p-id="10303"></path><path d="M833.484 836.31c-0.175-0.437-18.011-44.085-66.205-86.905-64.469-57.277-150.273-86.32-255.029-86.32-105.941 0-192.439 29.665-257.092 88.171-46.55 42.124-63.937 84.528-64.099 84.944l-50.307-19.627c0.853-2.186 21.528-54.098 78.173-105.357 32.941-29.809 71.467-53.532 114.51-70.513 53.183-20.98 113.345-31.618 178.815-31.618 65.471 0 125.633 10.638 178.815 31.618 43.042 16.98 81.569 40.704 114.51 70.513 56.645 51.26 77.32 103.172 78.173 105.357l-50.307 19.627L833.484 836.31z" p-id="10304"></path></svg>